<svg width="16" height="16" viewBox="0 0 16 16" fill="none" xmlns="http://www.w3.org/2000/svg">
<path d="M5 3.55569V12.4443C4.99997 12.5432 5.02527 12.6402 5.07327 12.7255C5.12127 12.8108 5.19024 12.8811 5.27307 12.9294C5.3559 12.9776 5.44958 13.0019 5.54446 12.9999C5.63933 12.9978 5.73195 12.9694 5.81278 12.9176L12.7459 8.47332C12.8235 8.42362 12.8877 8.35401 12.9322 8.27115C12.9766 8.18829 13 8.09494 13 8C13 7.90506 12.9766 7.81171 12.9322 7.72885C12.8877 7.64599 12.8235 7.57639 12.7459 7.52668L5.81278 3.08238C5.73195 3.03058 5.63933 3.00219 5.54446 3.00012C5.44958 2.99806 5.3559 3.0224 5.27307 3.07063C5.19024 3.11887 5.12127 3.18925 5.07327 3.27452C5.02527 3.35978 4.99997 3.45685 5 3.55569Z" fill="#030C11"/>
</svg>
